# xmcd
#
# Track frame offsets:
#	150
#	18195
#	50889
#	88410
#	109626
#	127662
#	150099
#	182958
#	209802
#	231651
#	249516
#	274125
#	297678
#	318702
#	331356
#
# Disc length: 4758
#
# Revision: 1
# Processed by: cddbd v1.5.1PL0 Copyright (c) Steve Scherf et al.
# Submitted via: CDex 1.51
# Normalized: r0:TDELIM( - )
#
DISCID=e712940f
DTITLE=Compilation Jazz - Nu Jazz - CD 04
DYEAR=2004
DGENRE=Jazz
TTITLE0=The Peter Malick Group Feat. Norah Jones - New York City
TTITLE1=Gotan Project Meets Chet Baker - Round About Midnight
TTITLE2=Jazzanova - Coffeee Talk (Yukihiro Fukutomi Remix)
TTITLE3=Metropolitan Jazz Affair - Yunowhathisliffeez
TTITLE4=Nathan Haines Feat. Marlena Shaw - Squire For Hire
TTITLE5=Grand Tourism Feat. Terry Callier - Les courants d'air
TTITLE6=St Germain - Deep In It
TTITLE7=Llorca - Indigo Blues
TTITLE8=Patchworks - Summertime
TTITLE9=Slow Train - Naturally
TTITLE10=Zimpala - Doo You Bop
TTITLE11=Bugge Wesseltoft - Change
TTITLE12=Fertile Ground - Take Me Higher
TTITLE13=Zuco 103 Feat. Lilian Vieira - O Baiano
TTITLE14=Mo'Horizons - Hit The Road Jack (Pè Na éstrada)
EXTD=YEAR: 2004
EXTT0=
EXTT1=
EXTT2=
EXTT3=
EXTT4=
EXTT5=
EXTT6=
EXTT7=
EXTT8=
EXTT9=
EXTT10=
EXTT11=
EXTT12=
EXTT13=
EXTT14=
PLAYORDER=
